<svg width="72" height="40" viewBox="0 0 72 40" fill="none" xmlns="http://www.w3.org/2000/svg">
<path d="M38.9068 38.3822V27.1666H40.397L45.5107 34.9626L46.3264 36.4058H46.3577V27.1666H47.6754V38.3822H46.2322L41.0872 30.5705L40.2558 29.1744H40.2244V38.3822H38.9068Z" fill="#0D0D0D"/>
<path d="M53.0613 38.6018C51.8587 38.6018 50.9019 38.1992 50.1908 37.394C49.4901 36.5783 49.1398 35.5587 49.1398 34.3352C49.1398 33.1326 49.4954 32.1234 50.2065 31.3078C50.928 30.4816 51.8535 30.0686 52.9829 30.0686C54.1751 30.0686 55.0953 30.4869 55.7437 31.3234C56.392 32.1496 56.7162 33.2528 56.7162 34.6332H50.4418C50.494 35.4907 50.745 36.1914 51.1947 36.7352C51.6548 37.2685 52.277 37.5352 53.0613 37.5352C54.2744 37.5352 55.0221 36.9809 55.3045 35.8724H56.5437C56.3554 36.7404 55.958 37.4149 55.3515 37.8959C54.745 38.3665 53.9816 38.6018 53.0613 38.6018ZM54.677 31.7627C54.2692 31.3025 53.7045 31.0725 52.9829 31.0725C52.2613 31.0725 51.6862 31.313 51.2574 31.794C50.8391 32.2751 50.5777 32.9025 50.4731 33.6764H55.3515C55.3097 32.8607 55.0848 32.2228 54.677 31.7627Z" fill="#0D0D0D"/>
<path d="M56.7917 38.3822L59.8505 34.1313L57.1525 30.2725H58.627L60.5564 33.2215H60.5877L62.5956 30.2725H63.9916L61.325 33.9901L64.4936 38.3822H63.0034L60.6034 34.8999H60.572L58.2191 38.3822H56.7917Z" fill="#0D0D0D"/>
<path d="M68.1883 38.6175C67.0798 38.6175 66.2014 38.2358 65.553 37.4724C64.9151 36.6986 64.5962 35.658 64.5962 34.3509C64.5962 33.0332 64.9308 31.9927 65.6001 31.2293C66.2693 30.4659 67.1216 30.0842 68.1569 30.0842C69.2549 30.0842 70.102 30.5287 70.6981 31.4176H70.7294V27.1666H72V38.3822H70.7294V37.394H70.6981C70.0602 38.2097 69.2236 38.6175 68.1883 38.6175ZM68.2353 37.5508C69.1033 37.5508 69.7464 37.2633 70.1647 36.6881C70.5935 36.1129 70.8079 35.3391 70.8079 34.3666C70.8079 33.4045 70.5778 32.6306 70.1177 32.045C69.668 31.4594 69.0353 31.1666 68.2197 31.1666C67.4772 31.1666 66.902 31.4646 66.4942 32.0607C66.0968 32.6463 65.8981 33.4149 65.8981 34.3666C65.8981 35.3182 66.0968 36.0868 66.4942 36.6724C66.902 37.258 67.4824 37.5508 68.2353 37.5508Z" fill="#0D0D0D"/>
<path d="M5.65049 19.6321C5.65049 21.4168 5.74344 22.9598 5.92935 24.2612C6.52427 21.3982 7.82563 19.0743 9.83346 17.2896C11.8413 15.5049 14.3882 14.6125 17.4743 14.6125C21.081 14.6125 24.0184 15.728 26.2865 17.9589C28.5917 20.1898 29.7444 23.0714 29.7444 26.6037C29.7444 30.4334 28.5731 33.5195 26.2307 35.862C23.9254 38.2044 21.0624 39.3757 17.6417 39.3757C14.1466 39.3757 11.2464 38.3346 8.94109 36.2524C5.59472 33.2406 3.92153 27.7935 3.92153 19.9109C3.92153 13.5528 5.11135 8.6448 7.491 5.18688C9.87064 1.72896 13.2542 0 17.6417 0C20.7649 0 23.2933 0.855184 25.2268 2.56555C27.1602 4.23874 28.2757 6.50684 28.5731 9.36985H26.7884C26.5281 6.95302 25.58 5.05674 23.944 3.68101C22.3452 2.2681 20.2444 1.56164 17.6417 1.56164C13.8119 1.56164 10.856 3.10469 8.77377 6.19079C6.72877 9.27689 5.68767 13.7573 5.65049 19.6321ZM6.76595 27.1056C6.76595 30.3033 7.76986 32.8874 9.77768 34.8581C11.8227 36.8287 14.4254 37.814 17.5859 37.814C20.4489 37.814 22.8843 36.7915 24.8921 34.7465C26.9 32.7015 27.9039 30.0058 27.9039 26.6594C27.9039 23.5362 26.9186 21.0078 24.9479 19.0743C23.0145 17.1409 20.5233 16.1741 17.4743 16.1741C14.2395 16.1741 11.6368 17.2524 9.66614 19.409C7.73268 21.5283 6.76595 24.0939 6.76595 27.1056Z" fill="#FFA538"/>
<path d="M1.72896 19.6321C1.72896 21.4168 1.82191 22.9598 2.00782 24.2612C2.60273 21.3982 3.9041 19.0743 5.91193 17.2896C7.91975 15.5049 10.4667 14.6125 13.5528 14.6125C17.1595 14.6125 20.0968 15.728 22.3649 17.9589C24.6702 20.1898 25.8228 23.0714 25.8228 26.6037C25.8228 30.4334 24.6516 33.5195 22.3092 35.862C20.0039 38.2044 17.1409 39.3757 13.7201 39.3757C10.225 39.3757 7.32484 38.3346 5.01956 36.2524C1.67319 33.2406 0 27.7935 0 19.9109C0 13.5528 1.18982 8.6448 3.56946 5.18688C5.94911 1.72896 9.33266 0 13.7201 0C16.8434 0 19.3718 0.855184 21.3052 2.56555C23.2387 4.23874 24.3542 6.50684 24.6516 9.36985H22.8669C22.6066 6.95302 21.6585 5.05674 20.0225 3.68101C18.4236 2.2681 16.3229 1.56164 13.7201 1.56164C9.89039 1.56164 6.93443 3.10469 4.85224 6.19079C2.80724 9.27689 1.76614 13.7573 1.72896 19.6321ZM2.84442 27.1056C2.84442 30.3033 3.84833 32.8874 5.85615 34.8581C7.90116 36.8287 10.5039 37.814 13.6644 37.814C16.5274 37.814 18.9628 36.7915 20.9706 34.7465C22.9784 32.7015 23.9823 30.0058 23.9823 26.6594C23.9823 23.5362 22.997 21.0078 21.0264 19.0743C19.0929 17.1409 16.6017 16.1741 13.5528 16.1741C10.318 16.1741 7.71525 17.2524 5.74461 19.409C3.81115 21.5283 2.84442 24.0939 2.84442 27.1056Z" fill="#1E90FF"/>
<path d="M11.7506 19.6321C11.7506 21.4168 11.8436 22.9598 12.0295 24.2612C12.6244 21.3982 13.9258 19.0743 15.9336 17.2896C17.9414 15.5049 20.4884 14.6125 23.5745 14.6125C27.1811 14.6125 30.1185 15.728 32.3866 17.9589C34.6919 20.1898 35.8445 23.0714 35.8445 26.6037C35.8445 30.4334 34.6733 33.5195 32.3308 35.862C30.0256 38.2044 27.1626 39.3757 23.7418 39.3757C20.2467 39.3757 17.3465 38.3346 15.0413 36.2524C11.6949 33.2406 10.0217 27.7935 10.0217 19.9109C10.0217 13.5528 11.2115 8.6448 13.5912 5.18688C15.9708 1.72896 19.3544 0 23.7418 0C26.8651 0 29.3935 0.855184 31.3269 2.56555C33.2604 4.23874 34.3759 6.50684 34.6733 9.36985H32.8886C32.6283 6.95302 31.6802 5.05674 30.0442 3.68101C28.4453 2.2681 26.3446 1.56164 23.7418 1.56164C19.9121 1.56164 16.9561 3.10469 14.8739 6.19079C12.8289 9.27689 11.7878 13.7573 11.7506 19.6321ZM12.8661 27.1056C12.8661 30.3033 13.87 32.8874 15.8778 34.8581C17.9228 36.8287 20.5256 37.814 23.686 37.814C26.5491 37.814 28.9845 36.7915 30.9923 34.7465C33.0001 32.7015 34.004 30.0058 34.004 26.6594C34.004 23.5362 33.0187 21.0078 31.0481 19.0743C29.1146 17.1409 26.6234 16.1741 23.5745 16.1741C20.3397 16.1741 17.7369 17.2524 15.7663 19.409C13.8328 21.5283 12.8661 24.0939 12.8661 27.1056Z" fill="#06DAAE"/>
</svg>
