<svg width="556" height="503" viewBox="0 0 556 503" fill="none" xmlns="http://www.w3.org/2000/svg">
<g style="mix-blend-mode:overlay" opacity="0.24">
<path d="M484 290.624C523.763 290.624 555.999 322.918 555.999 362.755C555.999 402.591 523.763 434.885 484 434.885C444.235 434.885 411.999 402.591 411.999 362.755C411.999 322.918 444.235 290.624 484 290.624Z" fill="#64C4FF"/>
<path d="M340 0.0981261C379.764 0.0981244 411.999 32.3924 411.999 72.2292C411.999 112.065 379.764 144.359 340 144.359C300.235 144.359 268 112.065 268 72.2292C268 32.3924 300.235 0.0981279 340 0.0981261Z" fill="#233B5C"/>
<path d="M196 358.739C235.765 358.739 268 391.033 268 430.87C268 470.706 235.765 503 196 503C156.236 503 124 470.706 124 430.87C124 391.033 156.235 358.739 196 358.739Z" fill="white"/>
<path d="M484 0.0981261C523.763 0.0981244 555.999 32.3924 555.999 72.2292C555.999 112.065 523.763 144.359 484 144.359C444.235 144.359 411.999 112.065 411.999 72.2292C411.999 32.3924 444.235 0.0981279 484 0.0981261Z" fill="#64C4FF"/>
<path d="M484 146.363C523.763 146.363 555.999 178.657 555.999 218.494C555.999 258.331 523.763 290.624 484 290.624C444.235 290.624 411.999 258.331 411.999 218.494C411.999 178.657 444.235 146.363 484 146.363Z" fill="#233B5C"/>
<path d="M340 146.363C379.764 146.363 411.999 178.657 411.999 218.494C411.999 258.331 379.764 290.624 340 290.624C300.235 290.624 268 258.331 268 218.494C268 178.657 300.235 146.363 340 146.363Z" fill="white"/>
<path d="M196 146.363C235.765 146.363 268 178.657 268 218.494C268 258.331 235.765 290.624 196 290.624C156.236 290.624 124 258.331 124 218.494C124 178.657 156.235 146.363 196 146.363Z" fill="#64C4FF"/>
<path d="M339 292.627C378.765 292.627 411 324.922 411 364.758C411 404.595 378.765 436.889 339 436.889C299.236 436.889 267 404.595 267 364.758C267 324.922 299.235 292.627 339 292.627Z" fill="#64C4FF"/>
<path d="M267.89 358.739C265.811 320.77 234.419 290.624 196 290.624C157.58 290.624 126.189 320.77 124.109 358.739L267.89 358.739Z" fill="#233B5C"/>
<path d="M144 500.997C141.917 466.374 110.478 438.885 71.9998 438.885C33.5218 438.885 2.08275 466.374 0 500.997L144 500.997Z" fill="#233B5C"/>
<path d="M411.89 503L268.11 503C270.189 465.031 301.581 434.885 340 434.885C378.42 434.885 409.811 465.031 411.89 503Z" fill="#64C4FF"/>
<path d="M555.889 503L412.108 503C414.188 465.031 445.579 434.885 483.999 434.885C522.419 434.885 553.81 465.031 555.889 503Z" fill="white"/>
<path d="M484 146.363C523.763 146.363 555.999 178.657 555.999 218.494C555.999 258.331 523.763 290.624 484 290.624C444.235 290.624 411.999 258.331 411.999 218.494C411.999 178.657 444.235 146.363 484 146.363Z" fill="#233B5C"/>
</g>
</svg>
