<svg width="99" height="1394" viewBox="0 0 99 1394" fill="none" xmlns="http://www.w3.org/2000/svg">
<circle cx="49.5" cy="18" r="18" fill="#63C9DC"/>
<circle cx="49.4999" cy="17.9999" r="2.90323" fill="white"/>
<line x1="48.25" y1="174.022" x2="48.25" y2="35.9998" stroke="url(#paint0_linear_1899_6574)" stroke-width="2.5"/>
<circle cx="49.5" cy="192.022" r="18" fill="#5FD2C1"/>
<circle cx="49.4999" cy="192.022" r="2.90323" fill="white"/>
<line x1="50.75" y1="210.022" x2="50.75" y2="420.022" stroke="url(#paint1_linear_1899_6574)" stroke-width="2.5"/>
<circle cx="49.5" cy="438.022" r="18" fill="#BDE388"/>
<circle cx="49.4999" cy="438.022" r="2.90323" fill="white"/>
<line x1="48.25" y1="610.022" x2="48.25" y2="456.022" stroke="url(#paint2_linear_1899_6574)" stroke-width="2.5"/>
<circle cx="49.5" cy="628.022" r="18" fill="#FFB966"/>
<circle cx="49.4999" cy="628.022" r="2.90323" fill="white"/>
<line x1="48.25" y1="843.022" x2="48.25" y2="646.022" stroke="url(#paint3_linear_1899_6574)" stroke-width="2.5"/>
<circle cx="49.5" cy="861.022" r="18" fill="#FF8266"/>
<circle cx="49.4999" cy="861.022" r="2.90323" fill="white"/>
<line x1="48.25" y1="1042.02" x2="48.25" y2="879.022" stroke="url(#paint4_linear_1899_6574)" stroke-width="2.5"/>
<circle cx="49.5" cy="1060.02" r="18" fill="#FF66A1"/>
<circle cx="49.4999" cy="1060.02" r="2.90323" fill="white"/>
<line x1="48.25" y1="1180.02" x2="48.25" y2="1078.02" stroke="url(#paint5_linear_1899_6574)" stroke-width="2.5"/>
<circle cx="49.5" cy="1198.02" r="18" fill="#6391DC"/>
<circle cx="49.4999" cy="1198.02" r="2.90323" fill="white"/>
<line x1="50.75" y1="1216.02" x2="50.75" y2="1357.02" stroke="url(#paint6_linear_1899_6574)" stroke-width="2.5"/>
<circle cx="49.5" cy="1375.02" r="18" fill="#863CC6"/>
<circle cx="49.4999" cy="1375.02" r="2.90323" fill="white"/>
<defs>
<linearGradient id="paint0_linear_1899_6574" x1="50" y1="174.022" x2="50" y2="35.9998" gradientUnits="userSpaceOnUse">
<stop stop-color="#6391DC"/>
<stop offset="1" stop-color="#63C9DC"/>
</linearGradient>
<linearGradient id="paint1_linear_1899_6574" x1="49" y1="210.022" x2="57.0078" y2="531" gradientUnits="userSpaceOnUse">
<stop stop-color="#63C9DC"/>
<stop offset="1" stop-color="#BDE388"/>
</linearGradient>
<linearGradient id="paint2_linear_1899_6574" x1="50" y1="456.022" x2="50" y2="610.022" gradientUnits="userSpaceOnUse">
<stop stop-color="#5FD2C1"/>
<stop offset="1" stop-color="#FFB966"/>
</linearGradient>
<linearGradient id="paint3_linear_1899_6574" x1="50" y1="646.022" x2="50" y2="843.022" gradientUnits="userSpaceOnUse">
<stop stop-color="#FFB966"/>
<stop offset="1" stop-color="#FF8266"/>
</linearGradient>
<linearGradient id="paint4_linear_1899_6574" x1="50" y1="879.022" x2="50" y2="1042.02" gradientUnits="userSpaceOnUse">
<stop stop-color="#FFB966"/>
<stop offset="1" stop-color="#FF8266"/>
</linearGradient>
<linearGradient id="paint5_linear_1899_6574" x1="50" y1="1078.02" x2="56.7263" y2="1163" gradientUnits="userSpaceOnUse">
<stop stop-color="#FFB966"/>
<stop offset="1" stop-color="#6391DC"/>
</linearGradient>
<linearGradient id="paint6_linear_1899_6574" x1="49.5" y1="1357.02" x2="41.953" y2="1239.99" gradientUnits="userSpaceOnUse">
<stop stop-color="#863CC6"/>
<stop offset="1" stop-color="#FF66A1"/>
</linearGradient>
</defs>
</svg>
