<svg width="69" height="32" viewBox="0 0 69 32" fill="none" xmlns="http://www.w3.org/2000/svg">
<rect width="68.8532" height="31.3899" rx="5.4633" fill="#004B49"/>
<path d="M16.7849 13.6035C16.7383 13.1902 16.5462 12.8701 16.2087 12.6431C15.8711 12.4132 15.4462 12.2983 14.934 12.2983C14.5673 12.2983 14.2501 12.3565 13.9824 12.4729C13.7147 12.5864 13.5066 12.7435 13.3582 12.9443C13.2127 13.1422 13.1399 13.3678 13.1399 13.6209C13.1399 13.8334 13.1894 14.0167 13.2883 14.171C13.3902 14.3252 13.5226 14.4547 13.6856 14.5595C13.8514 14.6613 14.029 14.7472 14.2181 14.817C14.4073 14.8839 14.5892 14.9392 14.7638 14.9829L15.6368 15.2099C15.922 15.2797 16.2145 15.3743 16.5142 15.4936C16.814 15.6129 17.0919 15.7701 17.348 15.9651C17.6041 16.16 17.8107 16.4016 17.9678 16.6897C18.1279 16.9778 18.2079 17.3226 18.2079 17.7242C18.2079 18.2306 18.077 18.6802 17.8151 19.0731C17.5561 19.466 17.1792 19.7759 16.6845 20.0029C16.1927 20.2299 15.5975 20.3434 14.8991 20.3434C14.2298 20.3434 13.6506 20.2371 13.1617 20.0247C12.6728 19.8123 12.2902 19.5111 12.0137 19.1211C11.7372 18.7282 11.5844 18.2626 11.5553 17.7242H12.9086C12.9348 18.0473 13.0395 18.3165 13.2229 18.5318C13.4091 18.7442 13.6463 18.9028 13.9344 19.0076C14.2254 19.1095 14.5441 19.1604 14.8904 19.1604C15.2716 19.1604 15.6106 19.1007 15.9075 18.9814C16.2072 18.8592 16.4429 18.6904 16.6146 18.4751C16.7863 18.2568 16.8722 18.0022 16.8722 17.7111C16.8722 17.4463 16.7965 17.2295 16.6452 17.0607C16.4968 16.8919 16.2945 16.7523 16.0384 16.6417C15.7852 16.5311 15.4986 16.4336 15.1785 16.3492L14.1221 16.0611C13.4062 15.8661 12.8387 15.5795 12.4197 15.2011C12.0035 14.8228 11.7954 14.3223 11.7954 13.6995C11.7954 13.1844 11.9351 12.7348 12.2145 12.3507C12.4939 11.9665 12.8722 11.6682 13.3494 11.4558C13.8267 11.2404 14.3651 11.1328 14.9646 11.1328C15.5699 11.1328 16.1039 11.239 16.5666 11.4514C17.0322 11.6639 17.3989 11.9563 17.6666 12.3288C17.9344 12.6984 18.0741 13.1233 18.0857 13.6035H16.7849ZM22.6048 20.3303C21.9442 20.3303 21.3752 20.1891 20.898 19.9068C20.4236 19.6216 20.057 19.2215 19.798 18.7064C19.5419 18.1884 19.4138 17.5816 19.4138 16.8861C19.4138 16.1993 19.5419 15.594 19.798 15.0702C20.057 14.5464 20.4178 14.1375 20.8805 13.8436C21.3461 13.5496 21.8903 13.4027 22.5131 13.4027C22.8914 13.4027 23.2581 13.4652 23.6131 13.5904C23.9682 13.7155 24.2868 13.912 24.5691 14.1797C24.8514 14.4474 25.074 14.7952 25.237 15.223C25.4 15.6479 25.4815 16.1644 25.4815 16.7726V17.2353H20.1515V16.2575H24.2024C24.2024 15.9141 24.1326 15.61 23.9929 15.3452C23.8532 15.0775 23.6568 14.8665 23.4036 14.7122C23.1533 14.558 22.8594 14.4809 22.5218 14.4809C22.1552 14.4809 21.8351 14.5711 21.5615 14.7515C21.2909 14.929 21.0813 15.1619 20.9329 15.45C20.7874 15.7352 20.7146 16.0451 20.7146 16.3798V17.1437C20.7146 17.5918 20.7932 17.9731 20.9504 18.2874C21.1104 18.6016 21.3331 18.8417 21.6182 19.0076C21.9034 19.1706 22.2367 19.2521 22.6179 19.2521C22.8652 19.2521 23.0908 19.2171 23.2945 19.1473C23.4982 19.0745 23.6743 18.9669 23.8227 18.8243C23.9711 18.6817 24.0846 18.5056 24.1632 18.2961L25.3985 18.5187C25.2996 18.8825 25.1221 19.2011 24.866 19.4747C24.6128 19.7453 24.2941 19.9563 23.91 20.1076C23.5288 20.2561 23.0937 20.3303 22.6048 20.3303ZM28.3712 20.1949L26.3981 13.49H27.747L29.0609 18.4139H29.1264L30.4447 13.49H31.7935L33.1031 18.3921H33.1686L34.4738 13.49H35.8226L33.8539 20.1949H32.5225L31.1606 15.3539H31.0602L29.6982 20.1949H28.3712ZM38.3665 16.2139V20.1949H37.0613V13.49H38.3141V14.5813H38.397C38.5513 14.2263 38.7928 13.9411 39.1216 13.7257C39.4534 13.5104 39.871 13.4027 40.3745 13.4027C40.8313 13.4027 41.2315 13.4987 41.5749 13.6908C41.9183 13.8799 42.1846 14.1622 42.3737 14.5376C42.5629 14.913 42.6575 15.3772 42.6575 15.9301V20.1949H41.3523V16.0873C41.3523 15.6013 41.2257 15.2215 40.9725 14.948C40.7193 14.6715 40.3715 14.5333 39.9292 14.5333C39.6266 14.5333 39.3574 14.5987 39.1216 14.7297C38.8888 14.8607 38.704 15.0527 38.5673 15.3059C38.4334 15.5562 38.3665 15.8588 38.3665 16.2139ZM47.2977 20.3303C46.6371 20.3303 46.0681 20.1891 45.5909 19.9068C45.1165 19.6216 44.7499 19.2215 44.4908 18.7064C44.2348 18.1884 44.1067 17.5816 44.1067 16.8861C44.1067 16.1993 44.2348 15.594 44.4908 15.0702C44.7499 14.5464 45.1107 14.1375 45.5734 13.8436C46.039 13.5496 46.5832 13.4027 47.206 13.4027C47.5843 13.4027 47.951 13.4652 48.306 13.5904C48.6611 13.7155 48.9797 13.912 49.262 14.1797C49.5443 14.4474 49.7669 14.7952 49.9299 15.223C50.0929 15.6479 50.1744 16.1644 50.1744 16.7726V17.2353H44.8444V16.2575H48.8953C48.8953 15.9141 48.8255 15.61 48.6858 15.3452C48.5461 15.0775 48.3497 14.8665 48.0965 14.7122C47.8462 14.558 47.5523 14.4809 47.2147 14.4809C46.8481 14.4809 46.5279 14.5711 46.2544 14.7515C45.9837 14.929 45.7742 15.1619 45.6258 15.45C45.4803 15.7352 45.4075 16.0451 45.4075 16.3798V17.1437C45.4075 17.5918 45.4861 17.9731 45.6433 18.2874C45.8033 18.6016 46.0259 18.8417 46.3111 19.0076C46.5963 19.1706 46.9295 19.2521 47.3108 19.2521C47.5581 19.2521 47.7837 19.2171 47.9874 19.1473C48.1911 19.0745 48.3672 18.9669 48.5156 18.8243C48.664 18.6817 48.7775 18.5056 48.8561 18.2961L50.0914 18.5187C49.9925 18.8825 49.8149 19.2011 49.5589 19.4747C49.3057 19.7453 48.987 19.9563 48.6029 20.1076C48.2216 20.2561 47.7866 20.3303 47.2977 20.3303ZM52.4966 13.49L53.9764 16.1004L55.4694 13.49H56.8968L54.8058 16.8425L56.9142 20.1949H55.4868L53.9764 17.6893L52.4705 20.1949H51.0387L53.1252 16.8425L51.0649 13.49H52.4966Z" fill="white"/>
</svg>
