<svg width="41" height="39" viewBox="0 0 41 39" fill="none" xmlns="http://www.w3.org/2000/svg">
<path d="M16.6958 3.70821C17.8932 0.0229645 23.1068 0.0229616 24.3042 3.7082L26.2251 9.62006C26.7606 11.2682 28.2964 12.384 30.0293 12.384H36.2454C40.1203 12.384 41.7314 17.3425 38.5966 19.6201L33.5676 23.2738C32.1657 24.2924 31.5791 26.0978 32.1146 27.7459L34.0354 33.6578C35.2328 37.343 31.0149 40.4075 27.8801 38.1299L22.8511 34.4762C21.4492 33.4576 19.5508 33.4576 18.1489 34.4762L13.1199 38.1299C9.98507 40.4075 5.76715 37.343 6.96456 33.6578L8.88544 27.7459C9.42094 26.0978 8.8343 24.2924 7.43236 23.2738L2.40343 19.6201C-0.731426 17.3425 0.879674 12.384 4.75457 12.384H10.9707C12.7036 12.384 14.2394 11.2682 14.7749 9.62007L16.6958 3.70821Z" fill="url(#paint0_linear_2256_4378)"/>
<defs>
<linearGradient id="paint0_linear_2256_4378" x1="31.9993" y1="4.36981" x2="9.0007" y2="32.4352" gradientUnits="userSpaceOnUse">
<stop stop-color="#FFB800"/>
<stop offset="1" stop-color="#FFD055"/>
</linearGradient>
</defs>
</svg>
